<?xml version="1.0" encoding="utf-8"?>
<!-- Generator: Adobe Illustrator 16.0.0, SVG Export Plug-In . SVG Version: 6.00 Build 0)  -->
<!DOCTYPE svg PUBLIC "-//W3C//DTD SVG 1.1//EN" "http://www.w3.org/Graphics/SVG/1.1/DTD/svg11.dtd">
<svg version="1.1" id="Layer_1" xmlns="http://www.w3.org/2000/svg" xmlns:xlink="http://www.w3.org/1999/xlink" x="0px" y="0px"
	 width="199px" height="82.008px" viewBox="0 0 199 82.008" enable-background="new 0 0 199 82.008" xml:space="preserve">
<g display="none">
	<text transform="matrix(1 0 0 1 271.1113 833.4453)" display="inline" font-family="'ArialMT'" font-size="50">&lt;s_y/&gt;</text>
</g>
<g display="none">
	<path display="inline" d="M14.761,43.293v-3.45l22.05-11.7v4.3l-17.45,9.15l17.45,9v4.4L14.761,43.293z"/>
	<path display="inline" d="M66.161,55.068c-0.534,1.481-1.309,2.75-2.325,3.802c-1.017,1.051-2.25,1.866-3.7,2.448
		c-1.45,0.584-3.092,0.875-4.925,0.875c-3.667,0-6.525-1.174-8.575-3.522c-2.05-2.353-3.158-5.728-3.325-10.125h4.3
		c0,2.832,0.708,5.041,2.125,6.625s3.308,2.375,5.675,2.375c2.133,0,3.866-0.614,5.2-1.853c1.333-1.231,2-2.916,2-5.049
		c0-1.231-0.2-2.209-0.6-2.927c-0.4-0.717-0.992-1.301-1.775-1.75c-0.784-0.448-1.742-0.85-2.875-1.198
		c-1.133-0.353-2.434-0.761-3.9-1.228c-1.434-0.465-2.717-0.957-3.85-1.476c-1.133-0.519-2.092-1.149-2.875-1.899
		c-0.784-0.75-1.383-1.667-1.8-2.75s-0.625-2.458-0.625-4.125c0-1.7,0.25-3.242,0.75-4.625s1.216-2.575,2.15-3.575
		c0.933-1,2.042-1.775,3.325-2.325c1.283-0.55,2.708-0.825,4.275-0.825c3.566,0,6.333,1.067,8.3,3.2
		c1.966,2.133,2.95,5.167,2.95,9.1v0.1h-4.3c-0.167-2.566-0.842-4.516-2.025-5.85c-1.184-1.333-2.775-2-4.775-2
		c-1.9,0-3.409,0.55-4.525,1.65c-1.117,1.1-1.675,2.567-1.675,4.4c0,1.133,0.142,2.05,0.425,2.75c0.283,0.7,0.741,1.284,1.375,1.75
		c0.633,0.467,1.458,0.858,2.475,1.175c1.016,0.317,2.241,0.675,3.675,1.075c1.633,0.434,3.083,0.9,4.35,1.4
		c1.266,0.5,2.333,1.135,3.2,1.9c0.867,0.768,1.533,1.75,2,2.949c0.467,1.201,0.7,2.718,0.7,4.549
		C66.961,51.928,66.694,53.584,66.161,55.068z"/>
	<path display="inline" d="M70.268,62.395v-3.896h28.55v3.896H70.268z"/>
	<path display="inline" d="M117.096,66.247h-3.957l13.939-44.302h4.02L117.096,66.247z"/>
	<path display="inline" d="M140.066,54.995v-4.399l17.5-9l-17.5-9.151v-4.3l22.051,11.7v3.45L140.066,54.995z"/>
	<polygon display="inline" points="106.717,22 102.117,22 111.816,52.967 113.867,46.209 	"/>
</g>
<path fill="#6C9EF8" d="M0,35.431l36.514-16.267l3.312,10.839L13.162,40.971l26.664,10.97l-3.312,10.836L0,46.501V35.431z"/>
<path fill="#DDDDDD" d="M69.07,59.02c2.086,0,3.808-0.185,5.168-0.551c1.359-0.365,2.448-0.865,3.27-1.5
	c0.822-0.634,1.392-1.384,1.708-2.25c0.315-0.865,0.474-1.832,0.474-2.898c0-2.268-1.011-4.148-3.034-5.648
	c-2.023-1.5-5.5-3.111-10.431-4.848c-2.15-0.8-4.299-1.715-6.448-2.75c-2.151-1.033-4.079-2.333-5.785-3.9
	c-1.707-1.565-3.098-3.466-4.171-5.7c-1.077-2.232-1.612-4.95-1.612-8.15c0-3.2,0.569-6.083,1.707-8.65
	c1.138-2.565,2.75-4.75,4.836-6.55c2.086-1.8,4.614-3.183,7.586-4.15c2.971-0.965,6.321-1.45,10.052-1.45
	c4.424,0,8.25,0.5,11.474,1.5c3.224,1,7.678,2.663,6.048,8.826l-0.066,0.194c-1.465,4.852-6.156,4.698-8.398,3.93
	c-2.245-0.766-4.947-1.15-8.107-1.15c-3.541,0-6.085,0.517-7.633,1.55c-1.551,1.034-2.323,2.617-2.323,4.75
	c0,1.267,0.285,2.334,0.852,3.2c0.57,0.867,1.375,1.65,2.419,2.35c1.043,0.7,2.242,1.334,3.603,1.9
	c1.359,0.567,2.86,1.15,4.504,1.75c3.414,1.334,6.385,2.65,8.912,3.95c2.528,1.3,4.63,2.817,6.306,4.55
	c1.674,1.734,2.923,3.767,3.745,6.098c0.821,2.334,1.233,5.166,1.233,8.5c0,6.471-2.15,11.482-6.448,15.055
	c-4.299,3.563-10.778,5.353-19.438,5.353c-2.908,0-5.532-0.187-7.87-0.554c-2.34-0.364-4.409-0.813-6.212-1.354
	c-1.8-0.529-2.89-0.896-4.185-1.49c-1.296-0.604-3.336-3.186-1.928-7.326l0.274-0.774c1.819-5.06,6.471-4.056,9.348-3.151
	C61.373,58.57,64.896,59.02,69.07,59.02z"/>
<path fill="#6C9EF8" d="M132.104,82.023h-12.719L147.33,0.016h12.545L132.104,82.023z"/>
<path fill="#DDDDDD" d="M116.774,2.175c-1.741-2.963-11.591-2.938-11.941,0.529c-0.106,11.444,8.036,34.829,15.93,42.05
	c3.543,2.045,7.085-7.715,6.542-11.927C125.546,24.543,121.024,9.411,116.774,2.175z"/>
<path fill="#6C9EF8" d="M199,46.501l-36.516,16.274l-3.311-10.838l26.664-10.97l-26.664-10.967l3.311-10.838L199,35.429V46.501z"/>
<path d="M129.932,53.02"/>
</svg>
